<?xml version="1.0" standalone="no"?>
<!DOCTYPE svg PUBLIC "-//W3C//DTD SVG 20010904//EN"
 "http://www.w3.org/TR/2001/REC-SVG-20010904/DTD/svg10.dtd">
<svg version="1.0" xmlns="http://www.w3.org/2000/svg"
 width="227.000000pt" height="237.000000pt" viewBox="0 0 227.000000 237.000000"
 preserveAspectRatio="xMidYMid meet">

<g transform="translate(0.000000,237.000000) scale(0.100000,-0.100000)"
fill="#000000" stroke="none">
<path d="M965 2360 c-235 -37 -435 -135 -603 -294 -231 -220 -345 -456 -359
-746 -12 -260 48 -486 188 -700 64 -97 238 -265 335 -323 108 -64 247 -123
353 -150 73 -19 113 -22 266 -22 163 1 190 3 280 27 55 15 120 34 144 42 l44
16 88 -80 c107 -98 156 -122 253 -123 59 -1 81 4 130 28 112 56 176 163 177
299 2 113 -42 203 -138 283 l-47 40 47 100 c189 403 136 863 -140 1203 -141
173 -372 321 -588 376 -112 29 -323 40 -430 24z m719 -331 c34 -40 33 -64 -3
-100 -36 -35 -70 -37 -107 -6 -35 31 -37 77 -4 112 34 36 81 34 114 -6z m-441
-98 c41 -11 95 -30 119 -42 106 -54 231 -177 282 -277 128 -252 52 -584 -169
-745 -99 -72 -146 -95 -235 -117 -97 -23 -151 -25 -253 -9 -237 37 -432 234
-483 488 -60 300 123 601 421 694 102 32 211 35 318 8z m344 -1081 c33 -37 34
-38 63 -23 16 8 40 13 53 11 30 -4 358 -341 387 -398 12 -23 20 -59 20 -88 0
-53 -17 -115 -30 -107 -4 3 -7 -2 -6 -11 2 -26 -50 -59 -94 -59 -21 0 -37 -2
-35 -6 2 -3 -2 -6 -10 -6 -8 0 -11 5 -8 10 4 6 -5 8 -24 4 -30 -6 -41 4 -232
201 -146 150 -201 213 -201 230 0 13 14 44 32 68 l32 44 -22 16 c-12 8 -20 19
-17 24 3 5 -1 10 -9 12 -11 2 -8 16 15 66 18 38 34 60 41 56 6 -4 26 -24 45
-44z"/>
<path d="M975 1743 c-118 -43 -209 -122 -262 -231 -26 -53 -28 -66 -28 -177 0
-111 2 -124 29 -178 41 -85 132 -178 208 -213 57 -26 73 -29 174 -29 107 0
112 1 186 38 210 103 298 352 199 564 -41 86 -112 155 -208 201 -66 31 -88 36
-162 39 -64 3 -99 -1 -136 -14z m105 -83 c34 -34 19 -74 -32 -85 -82 -18 -138
-64 -163 -134 -21 -60 -32 -71 -70 -71 -35 0 -45 13 -45 56 0 71 89 180 185
225 71 34 98 36 125 9z"/>
<path d="M1600 603 c0 -5 10 -18 23 -29 l22 -19 -20 25 c-11 14 -21 27 -22 29
-2 2 -3 0 -3 -6z"/>
<path d="M1517 573 c-14 -14 -6 -23 21 -22 16 0 21 3 12 6 -8 3 -18 10 -21 15
-3 4 -8 5 -12 1z"/>
<path d="M1565 520 c3 -5 8 -10 11 -10 2 0 4 5 4 10 0 6 -5 10 -11 10 -5 0 -7
-4 -4 -10z"/>
<path d="M1720 472 c0 -7 5 -12 10 -12 6 0 15 -10 20 -22 6 -15 9 -17 9 -7 1
9 -8 24 -19 34 -11 10 -20 13 -20 7z"/>
<path d="M1820 363 c0 -5 20 -30 45 -56 47 -50 55 -67 30 -67 -9 0 -12 -6 -9
-15 9 -23 -8 -18 -39 11 -16 14 -30 24 -33 22 -6 -6 46 -58 58 -58 5 0 6 -6 3
-12 -4 -7 0 -4 9 6 13 16 18 17 30 6 13 -10 19 -9 33 6 17 17 17 17 -10 10
-16 -4 -27 -2 -27 4 0 5 7 10 15 10 9 0 12 6 8 16 -4 12 -2 15 8 12 8 -3 13
-11 12 -17 -4 -15 12 -14 26 3 9 11 5 15 -24 20 -24 5 -51 23 -85 57 -28 28
-50 47 -50 42z"/>
<path d="M1970 199 c0 -5 5 -7 10 -4 6 3 10 8 10 11 0 2 -4 4 -10 4 -5 0 -10
-5 -10 -11z"/>
</g>
</svg>
